<?xml version="1.0" encoding="iso-8859-1"?>
<!-- Generator: Adobe Illustrator 19.0.0, SVG Export Plug-In . SVG Version: 6.00 Build 0)  -->
<svg version="1.1" id="Layer_1" xmlns="http://www.w3.org/2000/svg" xmlns:xlink="http://www.w3.org/1999/xlink" x="0px" y="0px"
	 viewBox="0 0 512 512" style="enable-background:new 0 0 512 512;" xml:space="preserve">
<path style="fill:#F3705A;" d="M1.067,269.37L38.4,172.303c2.133-6.4,7.467-9.6,13.867-9.6H156.8c7.467,0,14.933,6.4,14.933,14.933
	V368.57h-156.8C6.4,368.57,0,362.17,0,353.637v-80C0,272.57,0,270.437,1.067,269.37z"/>
<polygon style="fill:#415A6B;" points="116.267,185.103 57.6,185.103 24.533,267.237 116.267,267.237 "/>
<path style="fill:#66C6B9;" d="M171.733,114.703V368.57h316.8c12.8,0,23.467-10.667,23.467-23.467v-230.4
	c0-12.8-10.667-23.467-23.467-23.467H195.2C182.4,90.17,171.733,100.837,171.733,114.703z"/>
<circle style="fill:#415A6B;" cx="85.333" cy="368.57" r="52.267"/>
<circle style="fill:#E8EAE9;" cx="85.333" cy="368.57" r="24.533"/>
<circle style="fill:#415A6B;" cx="385.067" cy="368.57" r="52.267"/>
<circle style="fill:#E8EAE9;" cx="385.067" cy="368.57" r="24.533"/>
<g>
	<path style="fill:#FFFFFF;" d="M398.933,219.237l-5.333,20.267l-20.267-5.333l13.867,22.4h-33.067v-11.733l-25.6,26.667l25.6,25.6
		V285.37h34.133c4.267,0,7.467-2.133,9.6-5.333l16-25.6c2.133-3.2,2.133-7.467,0-11.733L398.933,219.237z"/>
	<path style="fill:#FFFFFF;" d="M311.467,272.57l13.867-14.933h-28.8l19.2-32l9.6,5.333l-9.6-35.2l-35.2,8.533l10.667,6.4
		l-20.267,34.133c-2.133,3.2-2.133,7.467,0,11.733l16,25.6c2.133,3.2,5.333,5.333,9.6,5.333H326.4L311.467,272.57z"/>
	<path style="fill:#FFFFFF;" d="M384,194.703l-17.067-27.733c-2.133-3.2-5.333-5.333-9.6-5.333H326.4
		c-4.267,0-7.467,2.133-9.6,5.333l-10.667,18.133l19.2-4.267l5.333,20.267l10.667-18.133l16,26.667l-10.667,6.4L384,223.503
		l9.6-35.2L384,194.703z"/>
</g>
<g>
</g>
<g>
</g>
<g>
</g>
<g>
</g>
<g>
</g>
<g>
</g>
<g>
</g>
<g>
</g>
<g>
</g>
<g>
</g>
<g>
</g>
<g>
</g>
<g>
</g>
<g>
</g>
<g>
</g>
</svg>
